<svg width="18" height="18" viewBox="0 0 18 18" fill="none" xmlns="http://www.w3.org/2000/svg">
<path d="M4.50267 7.23825L2.32879 9.41213C1.5169 10.224 1.05001 11.3287 1.05855 12.4897C1.06708 13.6507 1.52375 14.7621 2.37416 15.5863C3.19826 16.4367 4.30993 16.8934 5.47074 16.9019C6.65803 16.9106 7.73658 16.47 8.54851 15.6581L10.7224 13.4843M13.4991 10.7606L15.673 8.58676C16.4849 7.77487 16.9518 6.67018 16.9432 5.50918C16.9347 4.34818 16.478 3.23675 15.6276 2.4126C14.8037 1.58869 13.6922 1.132 12.5312 1.12347C11.3702 1.11493 10.2654 1.55532 9.45348 2.36723L7.27959 4.54111M5.70434 12.2379L12.226 5.71622" stroke="#03ECD6" stroke-width="1.5" stroke-linecap="round" stroke-linejoin="round"/>
</svg>
