<svg width="1280" height="225" viewBox="0 0 1280 225" fill="none" xmlns="http://www.w3.org/2000/svg">
<g clip-path="url(#clip0_252_3185)">
<rect y="0.862305" width="1280" height="224" rx="12" fill="#202232"/>
<path d="M1124.41 -125.138C1096.32 -49.6825 1012.33 103.786 901.119 114.014C762.102 126.799 783.933 -53.5497 873.44 -31.9708C962.948 -10.3918 946.31 220.301 774.115 170.028C601.92 119.756 581.546 -5.72925 570.453 -49.0369" stroke="white" stroke-opacity="0.5" stroke-width="3" stroke-dasharray="13 13"/>
<path d="M43.7641 45.7217V59.8623H41.6156V45.7217H43.7641ZM45.332 47.5771V45.7217H56.2891V47.5771H51.8945V59.8623H49.7461V47.5771H45.332ZM67.4719 47.167C67.4621 49.4033 69.0148 51.5225 71.6906 52.4209L70.7531 53.8662C68.7707 53.1826 67.3156 51.8154 66.5539 50.0967C65.7922 51.9814 64.2687 53.4756 62.218 54.1982L61.2219 52.7529C63.9562 51.8252 65.6066 49.5596 65.6164 47.1475V46.6787H61.7687V45.1748H71.2414V46.6787H67.4719V47.167ZM63.5461 56.9326V55.4287H75.1086V61.5225H73.2531V56.9326H63.5461ZM73.2531 54.5693V44.0225H75.1086V48.5146H77.6477V50.0771H75.1086V54.5693H73.2531ZM82.8875 44.8232C85.1922 44.8037 86.9793 46.1416 87.3602 48.1045H90.7781V44.0225H92.6336V53.417H90.7781V49.6279H87.3699C87.0086 51.6396 85.2117 52.9873 82.8875 52.9873C80.2117 52.9873 78.2879 51.2979 78.2977 48.8857C78.2879 46.5029 80.2117 44.8037 82.8875 44.8232ZM80.075 48.8857C80.0652 50.3799 81.2371 51.4248 82.8875 51.4248C84.5086 51.4248 85.6609 50.3799 85.6609 48.8857C85.6609 47.3818 84.5086 46.3564 82.8875 46.3662C81.2371 46.3564 80.0652 47.3818 80.075 48.8857ZM81.2273 61.3076V54.2568H83.0633V56.2881H90.7781V54.2568H92.6336V61.3076H81.2273ZM83.0633 59.7842H90.7781V57.7529H83.0633V59.7842ZM100.823 49.1787C100.813 51.9424 102.639 55.0283 105.295 56.2881L104.241 57.7334C102.278 56.7959 100.715 54.8232 99.9242 52.5381C99.1234 55.0283 97.4828 57.1865 95.4906 58.1826L94.3969 56.7178C97.0531 55.4385 98.977 52.1377 98.9867 49.1787V47.3232H95.0414V45.7803H104.631V47.3232H100.823V49.1787ZM106.506 61.5225V44.0225H108.362V50.9561H111.174V52.5186H108.362V61.5225H106.506ZM127.391 51.1904V52.6748H111.414V51.1904H127.391ZM113.328 55.4873V54.0615H125.359V58.2998H115.164V59.8623H125.848V61.3271H113.348V56.9326H123.523V55.4873H113.328ZM113.504 49.9209V44.5303H125.32V46.0342H115.359V48.4365H125.496V49.9209H113.504ZM133.802 45.2725C136.566 45.2627 138.558 46.9717 138.568 49.4326C138.558 51.8936 136.566 53.6025 133.802 53.6123C131.048 53.6025 129.027 51.8936 129.037 49.4326C129.027 46.9717 131.048 45.2627 133.802 45.2725ZM128.197 56.249C131.38 56.249 135.795 56.2197 139.623 55.6631L139.759 57.0107C135.804 57.7725 131.556 57.792 128.431 57.792L128.197 56.249ZM130.873 49.4326C130.853 50.9854 132.103 51.9912 133.802 51.9912C135.502 51.9912 136.752 50.9854 136.752 49.4326C136.752 47.8994 135.502 46.874 133.802 46.874C132.103 46.874 130.853 47.8994 130.873 49.4326ZM140.716 61.5615V44.0225H142.572V61.5615H140.716ZM155.18 47.167C155.171 49.4033 156.723 51.5225 159.399 52.4209L158.462 53.8662C156.479 53.1826 155.024 51.8154 154.262 50.0967C153.501 51.9814 151.977 53.4756 149.927 54.1982L148.93 52.7529C151.665 51.8252 153.315 49.5596 153.325 47.1475V46.6787H149.477V45.1748H158.95V46.6787H155.18V47.167ZM151.255 56.9326V55.4287H162.817V61.5225H160.962V56.9326H151.255ZM160.962 54.5693V44.0225H162.817V48.5146H165.356V50.0771H162.817V54.5693H160.962ZM170.596 44.8232C172.901 44.8037 174.688 46.1416 175.069 48.1045H178.487V44.0225H180.342V53.417H178.487V49.6279H175.079C174.717 51.6396 172.92 52.9873 170.596 52.9873C167.92 52.9873 165.996 51.2979 166.006 48.8857C165.996 46.5029 167.92 44.8037 170.596 44.8232ZM167.784 48.8857C167.774 50.3799 168.946 51.4248 170.596 51.4248C172.217 51.4248 173.37 50.3799 173.37 48.8857C173.37 47.3818 172.217 46.3564 170.596 46.3662C168.946 46.3564 167.774 47.3818 167.784 48.8857ZM168.936 61.3076V54.2568H170.772V56.2881H178.487V54.2568H180.342V61.3076H168.936ZM170.772 59.7842H178.487V57.7529H170.772V59.7842ZM197.027 44.0225V61.5615H195.191V52.0107H191.715V50.4873H195.191V44.0225H197.027ZM183.238 57.4209V45.585H191.422V47.0889H185.113V50.4873H190.68V51.9717H185.113V55.8779C188.043 55.8779 190.074 55.79 192.398 55.3896L192.594 56.8936C190.045 57.3037 187.848 57.4111 184.605 57.4209H183.238ZM202.267 58.5146L200.705 63.9053H199.045L200.08 58.5146H202.267Z" fill="white"/>
<path d="M42.2 82.4983H83.56V107.666H67.94V113.826H83.56V122.626H42.2V113.826H57.82V107.666H51.88C46.072 107.666 42.2 103.794 42.2 97.9863V82.4983ZM52.32 96.6663C52.32 98.2503 53.376 99.3063 54.96 99.3063H73.44V90.8583H52.32V96.6663ZM87.0817 103.706V95.3463H95.0897C100.194 95.3463 102.13 93.9383 102.13 91.8263V90.4183H87.0817V82.4983H112.25V90.5063C112.25 99.3063 108.026 103.706 94.2097 103.706H87.0817ZM124.922 122.626H114.802V114.266H87.0817V105.466H124.922V122.626ZM114.802 103.706V82.4983H124.922V88.6583H128.882V97.4583H124.922V103.706H114.802ZM171.563 122.626H130.203V113.826H161.443V91.2983H130.203V82.4983H171.563V122.626ZM184.941 122.626C178.473 122.626 174.205 117.83 174.205 110.57C174.205 103.31 178.473 98.5143 184.941 98.5143H185.689C188.065 98.5143 189.649 97.0623 189.649 94.8623C189.649 92.4423 188.065 90.8583 185.689 90.8583H175.085V82.4983H190.309C195.985 82.4983 199.769 87.2943 199.769 94.5543C199.769 101.814 195.985 106.61 190.309 106.61H188.285C185.909 106.61 184.325 108.15 184.325 110.438C184.325 112.726 185.909 114.266 188.285 114.266H202.805V82.4983H212.925V97.0623H216.885V105.862H212.925V122.626H184.941ZM217.767 91.5183C217.767 86.2383 221.067 82.4983 226.347 82.4983H251.427C256.707 82.4983 260.007 86.2383 260.007 91.5183C260.007 96.7983 256.707 100.538 251.427 100.538H226.347C221.067 100.538 217.767 96.7983 217.767 91.5183ZM233.827 113.826V109.558H218.207V102.078H259.567V109.558H243.947V113.826H233.827ZM218.207 111.318H228.327V113.386C228.327 114.53 228.943 115.146 230.087 115.146H259.567V122.626H226.567C220.759 122.626 218.207 120.074 218.207 114.266V111.318ZM227.931 91.5183C227.931 92.6183 228.811 93.4983 229.911 93.4983H247.863C248.963 93.4983 249.843 92.6183 249.843 91.5183C249.843 90.4183 248.963 89.5383 247.863 89.5383H229.911C228.811 89.5383 227.931 90.4183 227.931 91.5183ZM262.209 113.826H303.569V122.626H262.209V113.826ZM274.969 99.7463H303.569V108.546H271.889C266.081 108.546 262.209 104.674 262.209 98.8663V82.4983H303.569V91.2983H272.329V97.1063C272.329 98.6903 273.385 99.7463 274.969 99.7463Z" fill="white"/>
<rect x="173" y="152.862" width="219" height="36" rx="18" fill="white" fill-opacity="0.1"/>
<path d="M199.179 174.331V175.575H187.886V174.331H192.754V171.638H189.131V165.677H197.881V171.638H194.257V174.331H199.179ZM190.621 170.448H196.377V166.894H190.621V170.448ZM209.314 164.72V167.7H211.037V168.972H209.314V171.925H207.796V164.72H209.314ZM199.443 170.694C202.328 169.949 203.975 168.473 204.235 166.675H200.058V165.444H205.869C205.862 168.685 203.756 170.92 200.072 171.856L199.443 170.694ZM201.084 173.661V172.444H209.314V177.079H207.796V173.661H201.084ZM221.076 165.923V167.317C221.076 168.972 221.076 170.674 220.624 173.278L219.08 173.142C219.558 170.715 219.558 168.924 219.558 167.317V167.153H212.435V165.923H221.076ZM211.246 175.384V174.14H222.511V175.384H211.246ZM232.605 164.72V169.464H234.505V170.735H232.605V177.093H231.101V164.72H232.605ZM223.417 167.03V165.8H229.105V170.462H224.949V172.923C226.911 172.909 228.435 172.827 230.158 172.526L230.294 173.757C228.387 174.099 226.705 174.181 224.456 174.181H223.445V169.245H227.587V167.03H223.417ZM245.884 170.831V172.048H241.113V174.317H239.568V172.048H234.591V170.831H245.884ZM235.794 167.522C235.787 165.971 237.565 164.993 240.224 164.993C242.897 164.993 244.654 165.971 244.654 167.522C244.654 169.081 242.897 170.045 240.224 170.038C237.565 170.045 235.787 169.081 235.794 167.522ZM235.972 176.833V173.169H237.503V175.589H244.64V176.833H235.972ZM237.435 167.522C237.421 168.343 238.529 168.821 240.224 168.821C241.933 168.821 243.034 168.343 243.027 167.522C243.034 166.675 241.933 166.196 240.224 166.196C238.529 166.196 237.421 166.675 237.435 167.522ZM256.32 170.517V171.733H247.652V165.8H256.224V167.03H249.156V170.517H256.32ZM246.284 175.507V174.249H257.577V175.507H246.284ZM260.37 174.892L259.222 178.72H257.923L258.634 174.892H260.37ZM274.446 164.733V177.065H272.901V174.249H270.276V173.087H272.901V164.733H274.446ZM263.96 171.104C266.407 171.091 269.401 171.091 272.054 170.804L272.149 171.925C271.015 172.082 269.846 172.185 268.704 172.253V176.696H267.173V172.314C266.113 172.349 265.088 172.362 264.151 172.362L263.96 171.104ZM264.999 169.942V165.362H271.165V169.942H264.999ZM266.503 168.739H269.675V166.579H266.503V168.739ZM285.374 164.72V169.642H287.274V170.899H285.374V177.079H283.87V164.72H285.374ZM275.626 167.837V166.62H278.552V164.897H280.069V166.62H282.913V167.837H275.626ZM276.2 171.556C276.186 169.847 277.513 168.637 279.317 168.644C281.095 168.637 282.414 169.847 282.421 171.556C282.414 173.258 281.095 174.454 279.317 174.454C277.513 174.454 276.186 173.258 276.2 171.556ZM277.649 171.556C277.643 172.561 278.347 173.203 279.317 173.196C280.268 173.203 280.958 172.561 280.972 171.556C280.958 170.551 280.268 169.888 279.317 169.888C278.347 169.888 277.643 170.551 277.649 171.556ZM297.382 168.22V169.423H288.823V165.171H290.327V168.22H297.382ZM287.36 172.062V170.858H298.653V172.062H287.36ZM288.714 176.792V173.155H290.231V175.562H297.464V176.792H288.714ZM311.827 165.308V166.237C311.834 167.181 311.834 168.247 311.526 169.642L310.008 169.491C310.282 168.247 310.309 167.338 310.309 166.497H303.268V165.308H311.827ZM301.983 171.583V170.38H306.331V168.015H307.835V170.38H313.194V171.583H301.983ZM302.694 175.849C305.244 175.514 306.755 174.242 306.768 172.854V172.403H308.299V172.854C308.293 174.242 309.81 175.514 312.401 175.849L311.841 177.011C309.838 176.737 308.299 175.903 307.534 174.714C306.761 175.903 305.23 176.737 303.241 177.011L302.694 175.849ZM323.917 164.72V177.093H322.385V164.72H323.917ZM314.032 169.983C314.025 167.317 315.385 165.622 317.258 165.622C319.111 165.622 320.478 167.317 320.485 169.983C320.478 172.67 319.111 174.358 317.258 174.358C315.385 174.358 314.025 172.67 314.032 169.983ZM315.495 169.983C315.495 171.884 316.213 172.984 317.258 172.991C318.297 172.984 319.008 171.884 319.008 169.983C319.008 168.097 318.297 166.989 317.258 166.989C316.213 166.989 315.495 168.097 315.495 169.983ZM335.979 164.72V177.079H334.516V164.72H335.979ZM325.438 170.065C325.438 167.345 326.491 165.656 328.104 165.663C329.601 165.656 330.62 167.058 330.797 169.368H331.987V164.938H333.436V176.478H331.987V170.599H330.811C330.667 173.012 329.635 174.488 328.104 174.481C326.491 174.488 325.438 172.793 325.438 170.065ZM326.846 170.065C326.839 172 327.318 173.039 328.104 173.032C328.924 173.039 329.41 172 329.417 170.065C329.41 168.138 328.924 167.092 328.104 167.099C327.318 167.092 326.839 168.138 326.846 170.065ZM348.288 174.331V175.575H336.995V174.331H339.606V171.207C338.622 170.64 338.027 169.751 338.034 168.657C338.027 166.688 339.955 165.39 342.614 165.39C345.287 165.39 347.228 166.688 347.221 168.657C347.228 169.737 346.647 170.605 345.69 171.173V174.331H348.288ZM339.524 168.657C339.517 169.922 340.768 170.729 342.614 170.722C344.453 170.729 345.731 169.922 345.731 168.657C345.731 167.372 344.453 166.586 342.614 166.593C340.768 166.586 339.517 167.372 339.524 168.657ZM341.11 174.331H344.145V171.754C343.673 171.856 343.161 171.911 342.614 171.911C342.081 171.911 341.575 171.856 341.11 171.761V174.331ZM350.766 172.827C350.78 171.084 351.272 170.551 352.133 170.024C352.714 169.648 353.165 169.19 353.159 168.507C353.165 167.741 352.564 167.249 351.819 167.249C351.142 167.249 350.486 167.687 350.438 168.603H348.729C348.777 166.764 350.144 165.827 351.832 165.827C353.678 165.827 354.943 166.853 354.95 168.479C354.943 169.594 354.389 170.318 353.5 170.845C352.707 171.33 352.379 171.802 352.366 172.827V172.95H350.766V172.827ZM350.547 174.905C350.54 174.331 351.026 173.859 351.614 173.853C352.181 173.859 352.666 174.331 352.666 174.905C352.666 175.493 352.181 175.972 351.614 175.972C351.026 175.972 350.54 175.493 350.547 174.905Z" fill="#F7F8F9"/>
<path d="M367.639 167.583L373.32 167.583M373.32 167.583L373.32 173.183M373.32 167.583L366.721 174.182" stroke="#F7F8F9" stroke-width="1.5" stroke-linecap="round" stroke-linejoin="round"/>
<rect x="40" y="152.862" width="124" height="36" rx="18" fill="#FF4C3B"/>
<path d="M66.0032 174.331V175.575H54.7102V174.331H59.5774V171.638H55.9543V165.677H64.7043V171.638H61.0813V174.331H66.0032ZM57.4446 170.448H63.2004V166.894H57.4446V170.448ZM76.1378 164.72V167.7H77.8605V168.972H76.1378V171.925H74.6203V164.72H76.1378ZM66.2668 170.694C69.1515 169.949 70.799 168.473 71.0587 166.675H66.882V165.444H72.6925C72.6857 168.685 70.5802 170.92 66.8957 171.856L66.2668 170.694ZM67.9074 173.661V172.444H76.1378V177.079H74.6203V173.661H67.9074ZM83.7979 172.349C86.3614 172.349 87.9337 173.217 87.9405 174.7C87.9337 176.204 86.3614 177.072 83.7979 177.079C81.2139 177.072 79.6143 176.204 79.6143 174.7C79.6143 173.217 81.2139 172.349 83.7979 172.349ZM78.4932 171.269V165.499H79.9971V167.167H82.8819V165.499H84.3858V171.269H78.4932ZM79.9971 170.065H82.8819V168.356H79.9971V170.065ZM81.1319 174.7C81.1319 175.466 82.1026 175.883 83.7979 175.876C85.4864 175.883 86.4366 175.466 86.4366 174.7C86.4366 173.935 85.4864 173.545 83.7979 173.538C82.1026 173.545 81.1319 173.935 81.1319 174.7ZM86.2999 172.048V164.72H87.8175V167.673H89.5401V168.944H87.8175V172.048H86.2999ZM98.9267 165.786V171.624H93.0751V165.786H98.9267ZM94.4833 176.833V172.868H96.0009V175.603H102.892V176.833H94.4833ZM94.5653 170.421H97.4364V167.003H94.5653V170.421ZM100.882 173.743V164.72H102.399V168.343H104.122V169.614H102.399V173.743H100.882ZM115.61 169.669V170.872H104.331V169.669H115.61ZM105.657 172.868V171.72H114.188V174.823H107.161V175.767H114.53V176.956H105.671V173.729H112.698V172.868H105.657ZM105.766 168.876V165.034H114.161V166.251H107.284V167.673H114.27V168.876H105.766ZM126.333 164.72V177.079H124.802V164.72H126.333ZM116.093 173.675C119.333 172.137 120.823 170.045 121.096 167.235H116.721V166.032H122.641C122.641 169.71 121.213 172.834 116.886 174.892L116.093 173.675Z" fill="white"/>
<path d="M139.639 167.583L145.32 167.583M145.32 167.583L145.32 173.183M145.32 167.583L138.721 174.182" stroke="#F7F8F9" stroke-width="1.5" stroke-linecap="round" stroke-linejoin="round"/>
<path d="M817.418 110.745C817.418 107.263 820.241 104.44 823.723 104.44H912.779C916.261 104.44 919.084 107.263 919.084 110.745V136.753C919.084 140.235 916.261 143.058 912.779 143.058H823.723C820.241 143.058 817.418 140.235 817.418 136.753V110.745Z" fill="#3E4151"/>
<path d="M1027.45 151.6C1027.45 148.118 1030.27 145.295 1033.76 145.295H1122.81C1126.3 145.295 1129.12 148.118 1129.12 151.6V177.607C1129.12 181.089 1126.3 183.912 1122.81 183.912H1033.76C1030.27 183.912 1027.45 181.089 1027.45 177.607V151.6Z" fill="#3E4151"/>
<path d="M1133.14 193.664C1133.14 190.182 1135.97 187.359 1139.45 187.359H1228.51C1231.99 187.359 1234.81 190.182 1234.81 193.664V219.672C1234.81 223.154 1231.99 225.977 1228.51 225.977H1139.45C1135.97 225.977 1133.14 223.154 1133.14 219.672V193.664Z" fill="#3E4151"/>
<path d="M1238.84 193.664C1238.84 190.182 1241.66 187.359 1245.14 187.359H1334.2C1337.68 187.359 1340.5 190.182 1340.5 193.664V219.672C1340.5 223.154 1337.68 225.977 1334.2 225.977H1245.14C1241.66 225.977 1238.84 223.154 1238.84 219.672V193.664Z" fill="#3E4151"/>
<path d="M922.655 192.768C922.655 189.286 925.478 186.463 928.96 186.463H1123.26C1126.74 186.463 1129.56 189.286 1129.56 192.768V218.673C1129.56 222.155 1126.74 224.978 1123.26 224.978H928.96C925.478 224.978 922.655 222.155 922.655 218.673V192.768Z" fill="#3E4151"/>
<path d="M829.502 104.441C829.502 100.959 832.325 98.1357 835.807 98.1357H849.993C853.475 98.1357 856.298 100.959 856.298 104.441H829.502Z" fill="#3E4151"/>
<path d="M1041.64 145.296C1041.64 141.814 1044.46 138.991 1047.94 138.991H1062.13C1065.61 138.991 1068.43 141.814 1068.43 145.296H1041.64Z" fill="#3E4151"/>
<path d="M874.949 104.441C874.949 100.959 877.772 98.1357 881.254 98.1357H895.44C898.922 98.1357 901.745 100.959 901.745 104.441H874.949Z" fill="#3E4151"/>
<path d="M1084.98 145.296C1084.98 141.814 1087.81 138.991 1091.29 138.991H1105.47C1108.96 138.991 1111.78 141.814 1111.78 145.296H1084.98Z" fill="#3E4151"/>
<path d="M770.132 184.827C770.132 181.345 772.955 178.522 776.437 178.522H790.623C794.105 178.522 796.927 181.345 796.927 184.827V187.192H770.132V184.827Z" fill="#3E4151"/>
<path d="M938.777 184.707C938.777 181.225 941.6 178.402 945.082 178.402H959.268C962.75 178.402 965.573 181.225 965.573 184.707V187.072H938.777V184.707Z" fill="#3E4151"/>
<path d="M981.771 184.707C981.771 181.225 984.594 178.402 988.076 178.402H1002.26C1005.74 178.402 1008.57 181.225 1008.57 184.707V187.072H981.771V184.707Z" fill="#3E4151"/>
<path d="M919.086 149.362C919.086 147.621 917.675 146.21 915.934 146.21H820.573C818.832 146.21 817.42 147.621 817.42 149.362V180.887C817.42 182.628 818.832 184.039 820.573 184.039H915.934C917.675 184.039 919.086 182.628 919.086 180.887V149.362Z" fill="#3E4151"/>
<path d="M919.086 190.344C919.086 188.603 917.675 187.191 915.934 187.191H758.312C756.571 187.191 755.16 188.603 755.16 190.344V221.868C755.16 223.609 756.571 225.02 758.312 225.02H915.934C917.675 225.02 919.086 223.609 919.086 221.868V190.344Z" fill="#3E4151"/>
<rect x="1153.9" y="67.8594" width="99.3013" height="37.8291" rx="6.30485" transform="rotate(22.3193 1153.9 67.8594)" fill="#03ECD6"/>
<path d="M1168.53 101.948L1169.85 98.7402C1172.63 99.6083 1175.85 99.1428 1176.88 96.6348L1178.07 93.7331L1172.94 91.6261L1174.14 88.7098L1182.62 92.1937L1180.23 98.0116C1178.49 102.255 1173.43 103.45 1168.53 101.948ZM1178.45 106.019L1183.9 92.7204L1187.26 94.0972L1181.8 107.395L1178.45 106.019ZM1186.45 99.8125C1187.04 98.3544 1188.33 97.9123 1190.08 98.6307L1193.61 100.079C1195.36 100.798 1195.97 102.018 1195.37 103.476C1194.78 104.905 1193.54 105.35 1191.86 104.712L1191.67 105.193L1195.37 106.713L1198.63 98.7665L1201.99 100.143L1197.89 110.131L1184.62 104.684L1185.45 102.643L1187.88 103.636L1188.07 103.155C1186.41 102.423 1185.86 101.241 1186.45 99.8125ZM1196.53 113.441L1193.17 112.065L1193.51 111.233L1183.6 107.163L1184.44 105.122L1197.71 110.569L1196.53 113.441ZM1188.54 95.1335L1190.96 96.1271L1191.32 95.2523L1195.11 96.8086L1194.75 97.6835L1197.17 98.6771L1196.33 100.719L1187.7 97.1748L1188.54 95.1335ZM1189.81 101.195C1189.72 101.414 1189.81 101.57 1189.96 101.63L1191.59 102.3C1191.74 102.36 1191.91 102.312 1192 102.093C1192.09 101.874 1192 101.718 1191.86 101.659L1190.22 100.988C1190.08 100.928 1189.9 100.977 1189.81 101.195ZM1197.99 114.04L1199.3 110.832C1201.1 111.144 1202.62 110.303 1203.65 107.795L1204.9 104.748L1202.25 103.658L1203.44 100.742L1212.11 104.298L1210.91 107.214L1208.25 106.125L1207 109.172C1205.97 111.68 1206.42 113.449 1207.96 114.388L1206.65 117.596C1204.88 116.631 1203.74 114.921 1203.39 113.208C1201.96 114.19 1199.92 114.596 1197.99 114.04ZM1207.32 117.871L1212.78 104.573L1216.13 105.95L1214.15 110.776L1215.46 111.315L1214.26 114.231L1212.95 113.692L1210.67 119.248L1207.32 117.871Z" fill="#060812"/>
<rect x="1133.14" y="146.156" width="130.826" height="37.8291" rx="6.30485" fill="#FF4C3B"/>
<path d="M1163.33 165.83C1160.65 165.83 1159.31 163.97 1159.31 161.795C1159.31 159.62 1160.65 157.76 1163.33 157.76H1164.78C1167.46 157.76 1168.8 159.62 1168.8 161.795C1168.8 163.97 1167.46 165.83 1164.78 165.83H1163.33ZM1159.62 166.618H1163.25V168.037C1163.25 168.604 1163.63 168.983 1164.19 168.983H1173.34V172.135H1163.09C1161.01 172.135 1159.62 170.748 1159.62 168.667V166.618ZM1169.55 167.407V157.76H1173.18V160.203H1174.6V163.356H1173.18V167.407H1169.55ZM1162.95 161.795C1162.95 162.473 1163.33 162.993 1163.77 162.993H1164.34C1164.78 162.993 1165.16 162.473 1165.16 161.795C1165.16 161.117 1164.78 160.597 1164.34 160.597H1163.77C1163.33 160.597 1162.95 161.117 1162.95 161.795ZM1175.23 168.983H1190.05V172.135H1175.23V168.983ZM1179.8 163.939H1190.05V167.091H1178.7C1176.62 167.091 1175.23 165.704 1175.23 163.624V157.76H1190.05V160.913H1178.85V162.993C1178.85 163.561 1179.23 163.939 1179.8 163.939ZM1205.97 167.769H1200.37V169.456H1205.97V172.135H1191.15V169.456H1196.74V167.769H1193.91C1192.28 167.769 1190.99 166.445 1190.99 164.632C1190.99 162.82 1192.28 161.496 1193.91 161.496H1201.71C1202.06 161.496 1202.34 161.291 1202.34 160.976C1202.34 160.629 1202.06 160.44 1201.71 160.44H1191.15V157.76H1203.19C1204.99 157.76 1206.12 159.131 1206.12 160.881C1206.12 162.631 1204.99 164.018 1203.19 164.018H1195.56C1195.22 164.018 1194.93 164.223 1194.93 164.554C1194.93 164.885 1195.22 165.089 1195.56 165.089H1205.97V167.769ZM1217.95 172.135V157.76H1221.57V172.135H1217.95ZM1211.97 169.14C1212.52 169.14 1212.93 168.746 1212.93 168.116V161.779C1212.93 161.149 1212.52 160.755 1211.97 160.755C1211.42 160.755 1211.01 161.149 1211.01 161.779V168.116C1211.01 168.746 1211.42 169.14 1211.97 169.14ZM1207.38 167.958V161.937C1207.38 159.336 1209.17 157.602 1211.97 157.602C1214.78 157.602 1216.56 159.336 1216.56 161.937V167.958C1216.56 170.559 1214.78 172.293 1211.97 172.293C1209.17 172.293 1207.38 170.559 1207.38 167.958ZM1222.99 168.983H1237.81V172.135H1222.99V168.983ZM1227.56 163.939H1237.81V167.091H1226.46C1224.38 167.091 1222.99 165.704 1222.99 163.624V157.76H1237.81V160.913H1226.62V162.993C1226.62 163.561 1226.99 163.939 1227.56 163.939Z" fill="white"/>
<rect x="718.657" y="79.875" width="99.3013" height="37.8291" rx="6.30485" transform="rotate(21.1633 718.657 79.875)" fill="#FF4C3B"/>
<path d="M747.495 118.897L744.114 117.588L745.081 115.09L734.939 111.163L736.077 108.223L749.6 113.459L747.495 118.897ZM742.101 101.395L741.589 102.717L742.207 102.956L742.719 101.634L745.659 102.772L742.802 110.151L738.657 108.546C737.01 107.909 736.578 106.93 737.215 105.284L739.162 100.256L742.101 101.395ZM749.142 104.12L748.26 106.399L748.863 106.632L749.745 104.354L752.685 105.492L749.828 112.871L746.888 111.733L747.782 109.425L747.179 109.192L746.286 111.499L743.346 110.361L746.202 102.982L749.142 104.12ZM740.773 106.661L741.353 105.161L740.736 104.922L740.241 106.201C740.184 106.348 740.229 106.45 740.376 106.507L740.773 106.661ZM752.295 110.429L752.807 109.106C753.547 107.195 755.403 106.375 757.314 107.115C758.96 107.752 759.793 109.224 759.521 110.843L760.197 111.105L761.108 108.753L764.048 109.891L760.451 119.181L757.511 118.042L759.116 113.897L758.44 113.636C757.554 115.05 755.947 115.578 754.286 114.935C752.375 114.195 751.556 112.339 752.295 110.429ZM750.81 114.265L754.191 115.574L753.679 116.897C753.474 117.426 753.69 117.915 754.219 118.12L763.627 121.762L762.488 124.702L752.052 120.662C750.112 119.91 749.319 118.116 750.07 116.176L750.81 114.265ZM763.935 120.529L760.995 119.391L764.591 110.101L767.531 111.239L763.935 120.529ZM755.254 112.436C755.43 112.504 755.613 112.423 755.682 112.247L756.535 110.042C756.604 109.865 756.523 109.682 756.346 109.614C756.17 109.545 755.986 109.626 755.918 109.803L755.064 112.008C754.996 112.184 755.077 112.368 755.254 112.436ZM764.656 122.161L778.473 127.51L777.335 130.45L763.518 125.1L764.656 122.161ZM770.74 119.107L780.294 122.806L779.156 125.746L768.573 121.649C766.632 120.898 765.84 119.103 766.591 117.163L768.708 111.695L782.525 117.044L781.387 119.984L770.95 115.944L770.199 117.884C769.994 118.413 770.211 118.902 770.74 119.107Z" fill="white"/>
<rect x="1160" y="32.709" width="99.3013" height="37.8291" rx="6.30485" transform="rotate(-32.8376 1160 32.709)" fill="#FF4C3B"/>
<path d="M1204.89 34.6556L1201.64 36.7582L1193.84 24.6801L1197.1 22.5775L1204.89 34.6556ZM1204.62 17.3502C1208.38 14.9228 1212.88 15.9035 1215.17 19.466C1217.48 23.0417 1216.52 27.5438 1212.76 29.9712C1209 32.3986 1204.5 31.4179 1202.2 27.8422C1199.9 24.2797 1200.86 19.7776 1204.62 17.3502ZM1211.04 27.296C1212.98 26.0396 1213.23 23.6081 1211.92 21.5686C1210.61 19.5423 1208.29 18.7689 1206.34 20.0253C1204.4 21.2818 1204.15 23.7133 1205.45 25.7396C1206.77 27.7791 1209.09 28.5525 1211.04 27.296ZM1220 24.9052L1218.24 22.1771L1224.29 18.271C1225.01 17.8095 1225.23 17.1045 1224.84 16.5085C1224.46 15.9126 1223.73 15.823 1223.01 16.2845L1220.48 17.917C1218.22 19.3786 1215.74 18.8564 1214.3 16.6183C1212.89 14.4331 1213.46 12.0152 1215.73 10.5536L1221.91 6.56209L1223.67 9.29026L1218.17 12.8459C1217.45 13.3074 1217.23 14.0124 1217.61 14.6084C1218 15.2043 1218.73 15.2939 1219.45 14.8324L1221.59 13.4478C1224.1 11.8323 1226.72 12.2605 1228.16 14.4986C1229.57 16.6838 1228.85 19.1957 1226.34 20.8112L1220 24.9052Z" fill="white"/>
<rect x="958.483" y="108.029" width="99.3013" height="37.8291" rx="6.30485" transform="rotate(-30 958.483 108.029)" fill="#FF4C3B"/>
<path d="M990.651 119.456C988.849 120.496 986.955 119.988 985.914 118.187L980.461 108.741L988.405 104.154L989.981 106.884L985.176 109.658L988.739 115.828C989.022 116.319 989.539 116.458 990.031 116.174L995.218 113.179L989.606 103.46L992.746 101.648L999.933 114.097L990.651 119.456ZM1001.3 113.308L999.565 110.305C1000.91 109.073 1001.17 107.356 999.819 105.008L998.172 102.155L995.688 103.589L994.112 100.859L1002.22 96.1779L1003.8 98.9079L1001.31 100.342L1002.96 103.195C1004.31 105.543 1005.99 106.269 1007.67 105.624L1009.41 108.627C1007.56 109.437 1005.51 109.291 1003.94 108.524C1003.85 110.253 1002.92 112.116 1001.3 113.308ZM1010.04 108.264L1002.85 95.8153L1005.99 94.0027L1008.6 98.521L1009.82 97.8117L1011.4 100.542L1010.17 101.251L1013.17 106.452L1010.04 108.264ZM1024.37 99.9891L1017.18 87.5399L1020.32 85.7273L1027.51 98.1764L1024.37 99.9891ZM1017.7 100.382C1018.18 100.107 1018.33 99.5604 1018.02 99.0144L1014.85 93.5269C1014.53 92.9809 1013.98 92.8446 1013.51 93.1204C1013.03 93.3962 1012.87 93.9424 1013.18 94.4884L1016.35 99.9759C1016.67 100.522 1017.22 100.658 1017.7 100.382ZM1013.13 101.652L1010.12 96.4376C1008.82 94.1853 1009.5 91.7932 1011.93 90.3903C1014.36 88.9875 1016.77 89.5985 1018.07 91.8508L1021.08 97.0652C1022.38 99.3176 1021.7 101.71 1019.27 103.112C1016.84 104.515 1014.43 103.904 1013.13 101.652ZM1031.39 92.2936L1035.38 89.9923L1036.95 92.7224L1032.01 95.5754C1030.21 96.6157 1028.32 96.108 1027.28 94.3061L1021.82 84.86L1024.96 83.0474L1030.1 91.9475C1030.38 92.4389 1030.9 92.5773 1031.39 92.2936ZM1029.54 85.3359L1033.1 83.279L1030.97 79.5797L1034.11 77.7671L1041.3 90.2162L1038.16 92.0289L1034.68 86.0091L1031.12 88.066L1029.54 85.3359Z" fill="white"/>
<rect x="859.423" y="11.8018" width="130.826" height="37.8291" rx="6.30485" transform="rotate(12.8657 859.423 11.8018)" fill="#03ECD6"/>
<path d="M880.198 38.3449L880.83 35.579L882.827 36.0352L883.712 32.1629L881.714 31.7066L882.346 28.9407L896.79 32.2398L896.159 35.0058L894.161 34.5495L893.277 38.4218L895.274 38.8781L894.642 41.6441L880.198 38.3449ZM879.847 39.8816L894.292 43.1807L893.59 46.254L879.145 42.9548L879.847 39.8816ZM887.246 32.9701L886.362 36.8425L889.742 37.6146L890.627 33.7423L887.246 32.9701ZM910.598 43.2836L905.266 42.0657L905.154 42.5574L910.486 43.7753L909.96 46.0802L895.515 42.7811L896.042 40.4762L901.374 41.694L901.486 41.2023L898.228 40.4582C896.799 40.1318 896.089 38.854 896.398 37.5017C896.706 36.1495 897.898 35.3222 899.327 35.6486L908.009 37.6315C908.193 37.6737 908.341 37.5942 908.376 37.4405C908.411 37.2868 908.313 37.1512 908.128 37.1091L897.372 34.6523L897.867 32.4856L910.068 35.2723C911.512 35.6022 912.223 36.8801 911.914 38.2324C911.605 39.5846 910.414 40.4119 908.969 40.082L900.61 38.1727C900.425 38.1306 900.278 38.2101 900.243 38.3638C900.208 38.5174 900.306 38.6531 900.49 38.6952L911.093 41.1169L910.598 43.2836ZM895.427 43.1653L898.962 43.9725L898.867 44.3874C898.776 44.7869 898.942 45.0512 899.341 45.1424L909.637 47.494L909.11 49.7989L897.278 47.0964C895.403 46.6683 894.834 45.7622 895.262 43.8875L895.427 43.1653ZM927.832 39.3297L927.235 41.942L916.325 39.4501L916.055 40.6333L926.965 43.1252L926.403 45.5838L915.493 43.0919L915.36 43.6759C915.269 44.0754 915.435 44.3396 915.834 44.4309L926.13 46.7824L925.533 49.3947L914.469 46.8677C912.441 46.4044 911.397 44.7433 911.861 42.715L913.387 36.0306L927.832 39.3297ZM910.783 47.4324L925.228 50.7316L924.631 53.3439L910.186 50.0447L910.783 47.4324ZM928.005 44.2359L928.321 42.8529C928.777 40.8553 930.495 39.7763 932.493 40.2326C934.214 40.6257 935.251 41.9619 935.215 43.603L935.922 43.7644L936.484 41.3058L939.557 42.0077L937.339 51.7193L934.266 51.0174L935.255 46.684L934.548 46.5226C933.876 48.0505 932.362 48.8041 930.626 48.4075C928.628 47.9513 927.549 46.2335 928.005 44.2359ZM927.089 48.2465L930.623 49.0538L930.308 50.4367C930.181 50.9899 930.466 51.443 931.019 51.5693L940.854 53.8155L940.152 56.8888L929.241 54.3969C927.213 53.9336 926.17 52.2725 926.633 50.2442L927.089 48.2465ZM940.981 52.5511L937.907 51.8492L940.125 42.1376L943.199 42.8395L940.981 52.5511ZM931.222 45.7952C931.407 45.8373 931.577 45.7306 931.619 45.5462L932.145 43.2413C932.187 43.0569 932.08 42.887 931.896 42.8449C931.712 42.8028 931.542 42.9095 931.5 43.0939L930.973 45.3988C930.931 45.5832 931.038 45.7531 931.222 45.7952ZM941.93 54.0613L956.374 57.3605L955.672 60.4337L941.228 57.1346L941.93 54.0613ZM947.509 50.1619L957.497 52.4432L956.795 55.5165L945.732 52.9895C943.703 52.5262 942.66 50.8651 943.123 48.8368L944.429 43.1205L958.873 46.4196L958.171 49.4929L947.261 47.001L946.798 49.0293C946.671 49.5825 946.956 50.0355 947.509 50.1619Z" fill="#060812"/>
</g>
<defs>
<clipPath id="clip0_252_3185">
<rect y="0.862305" width="1280" height="224" rx="12" fill="white"/>
</clipPath>
</defs>
</svg>
