<svg width="569" height="127" viewBox="0 0 569 127" fill="none" xmlns="http://www.w3.org/2000/svg">
<path d="M224.086 6.57828C224.086 3.09621 226.909 0.273438 230.391 0.273438H244.577C248.059 0.273438 250.882 3.09621 250.882 6.57828V6.57828H224.086V6.57828Z" fill="#3E4151"/>
<path d="M111.188 47.4338C111.188 43.9517 114.01 41.1289 117.492 41.1289H131.678C135.16 41.1289 137.983 43.9517 137.983 47.4338V47.4338H111.188V47.4338Z" fill="#3E4151"/>
<path d="M386 89.4416C386 85.9595 388.823 83.1367 392.305 83.1367H406.491C409.973 83.1367 412.796 85.9595 412.796 89.4416V89.4416H386V89.4416Z" fill="#3E4151"/>
<path d="M269.531 6.57828C269.531 3.09621 272.354 0.273438 275.836 0.273438H290.022C293.504 0.273438 296.327 3.09621 296.327 6.57828V6.57828H269.531V6.57828Z" fill="#3E4151"/>
<path d="M316 6.57828C316 3.09621 318.823 0.273438 322.305 0.273438H336.491C339.973 0.273438 342.796 3.09621 342.796 6.57828V6.57828H316V6.57828Z" fill="#3E4151"/>
<path d="M163 47.4338C163 43.9517 165.823 41.1289 169.305 41.1289H183.491C186.973 41.1289 189.796 43.9517 189.796 47.4338V47.4338H163V47.4338Z" fill="#3E4151"/>
<path d="M435 89.4416C435 85.9595 437.823 83.1367 441.305 83.1367H455.491C458.973 83.1367 461.796 85.9595 461.796 89.4416V89.4416H435V89.4416Z" fill="#3E4151"/>
<path d="M212 12.4416C212 8.9595 214.823 6.13672 218.305 6.13672H360.695C364.177 6.13672 367 8.95949 367 12.4416V38.8319C367 42.3139 364.177 45.1367 360.695 45.1367H218.305C214.823 45.1367 212 42.3139 212 38.8319V12.4416Z" fill="#3E4151"/>
<path d="M92 53.4416C92 49.9595 94.8228 47.1367 98.3048 47.1367H201.695C205.177 47.1367 208 49.9595 208 53.4416V79.8319C208 83.3139 205.177 86.1367 201.695 86.1367H98.3049C94.8228 86.1367 92 83.3139 92 79.8319V53.4416Z" fill="#3E4151"/>
<path d="M372 95.4416C372 91.9595 374.823 89.1367 378.305 89.1367H471.695C475.177 89.1367 478 91.9595 478 95.4416V121.832C478 125.314 475.177 128.137 471.695 128.137H378.305C374.823 128.137 372 125.314 372 121.832V95.4416Z" fill="#3E4151"/>
<path d="M482 95.4416C482 91.9595 484.823 89.1367 488.305 89.1367H623.695C627.177 89.1367 630 91.9595 630 95.4416V121.832C630 125.314 627.177 128.137 623.695 128.137H488.305C484.823 128.137 482 125.314 482 121.832V95.4416Z" fill="#3E4151"/>
<path d="M212 94.4416C212 90.9595 214.823 88.1367 218.305 88.1367H360.695C364.177 88.1367 367 90.9595 367 94.4416V120.832C367 124.314 364.177 127.137 360.695 127.137H218.305C214.823 127.137 212 124.314 212 120.832V94.4416Z" fill="#3E4151"/>
<rect width="84" height="38" rx="6" transform="matrix(-1 0 0 1 296 48.1367)" fill="#3E4151"/>
<rect width="67" height="38" rx="6" transform="matrix(-1 0 0 1 367 48.1367)" fill="#3E4151"/>
<rect width="208" height="38" rx="6" transform="matrix(-1 0 0 1 208 89.1367)" fill="#3E4151"/>
</svg>
