<svg xmlns="http://www.w3.org/2000/svg" width="16" height="16" viewBox="0 0 16 16" fill="none">
  <path d="M10.3458 10.2115C10.7388 10.3425 11.1635 10.1301 11.2945 9.73717C11.4255 9.34421 11.2131 8.91947 10.8202 8.78849L10.3458 10.2115ZM8.33301 8.75H7.58301C7.58301 9.07282 7.78958 9.35943 8.09584 9.46151L8.33301 8.75ZM9.08301 5.61391C9.08301 5.1997 8.74722 4.86391 8.33301 4.86391C7.91879 4.86391 7.58301 5.1997 7.58301 5.61391H9.08301ZM10.8202 8.78849L8.57018 8.03849L8.09584 9.46151L10.3458 10.2115L10.8202 8.78849ZM9.08301 8.75V5.61391H7.58301V8.75H9.08301ZM13.583 8C13.583 10.8995 11.2325 13.25 8.33301 13.25V14.75C12.0609 14.75 15.083 11.7279 15.083 8H13.583ZM8.33301 13.25C5.43351 13.25 3.08301 10.8995 3.08301 8H1.58301C1.58301 11.7279 4.60509 14.75 8.33301 14.75V13.25ZM3.08301 8C3.08301 5.1005 5.43351 2.75 8.33301 2.75V1.25C4.60509 1.25 1.58301 4.27208 1.58301 8H3.08301ZM8.33301 2.75C11.2325 2.75 13.583 5.1005 13.583 8H15.083C15.083 4.27208 12.0609 1.25 8.33301 1.25V2.75Z" fill="#9FA1AC"/>
</svg>