<svg width="118" height="86" viewBox="0 0 118 86" fill="none" xmlns="http://www.w3.org/2000/svg">
<g id="illust_search">
<g id="Group 2085664984">
<path id="Rectangle 240651013" d="M8.61657 46.6976C8.91247 44.8281 10.6689 43.5547 12.5398 43.8535L68.914 52.857C70.7848 53.1558 72.0615 54.9136 71.7656 56.7831L69.6251 70.307C69.3292 72.1766 67.5727 73.4499 65.7019 73.1512L9.32772 64.1476C7.4569 63.8489 6.18018 62.0911 6.47608 60.2215L8.61657 46.6976Z" fill="#3E4151"/>
<path id="Rectangle 240651011" d="M20.0269 45.0499C20.3076 43.2803 21.9708 42.0747 23.7418 42.3572L30.7055 43.468C32.4765 43.7505 33.6846 45.4141 33.4039 47.1837L20.0269 45.0499Z" fill="#3E4151"/>
<path id="Rectangle 240651012" d="M46.687 49.3096C46.9677 47.54 48.631 46.3345 50.4019 46.617L57.9008 47.8131C59.6717 48.0956 60.8798 49.7592 60.5991 51.5288L46.687 49.3096Z" fill="#3E4151"/>
<path id="Rectangle 240651013_2" d="M5.39404 69.2813C5.69095 67.4119 7.44814 66.1393 9.31884 66.4389L65.1962 75.3864C67.0669 75.6859 68.3427 77.4442 68.0458 79.3136L65.898 92.8364C65.6011 94.7057 63.8439 95.9783 61.9732 95.6788L6.09586 86.7313C4.22516 86.4317 2.94936 84.6734 3.24627 82.8041L5.39404 69.2813Z" fill="#3E4151"/>
</g>
<g id="Group 2085664985">
<g id="Group 2085664983">
<path id="Ellipse 141" d="M103.265 4.38269C110.721 17.2966 106.297 33.8095 93.3827 41.2654C80.4688 48.7212 63.9558 44.2966 56.5 31.3827C49.0442 18.4688 53.4688 1.95584 66.3827 -5.5C79.2966 -12.9558 95.8095 -8.53121 103.265 4.38269ZM61.6441 28.4127C67.4597 38.4856 80.3398 41.9368 90.4127 36.1213C100.486 30.3057 103.937 17.4255 98.1213 7.35264C92.3057 -2.72025 79.4255 -6.17148 69.3526 -0.355891C59.2798 5.45969 55.8285 18.3398 61.6441 28.4127Z" fill="#3E4151"/>
<rect id="Rectangle 240651065" x="89.7852" y="41.0332" width="5" height="8" transform="rotate(-30 89.7852 41.0332)" fill="#3E4151"/>
<rect id="Rectangle 240651066" x="90.0527" y="45.498" width="9" height="31.4843" rx="2" transform="rotate(-30 90.0527 45.498)" fill="#3E4151"/>
</g>
</g>
</g>
</svg>
