<svg width="98" height="86" viewBox="0 0 98 86" fill="none" xmlns="http://www.w3.org/2000/svg">
<g id="illust_block">
<g id="Group 2085664980">
<path id="Rectangle 240651013" d="M17.6832 -11.057C18.3684 -12.9617 20.4685 -13.9527 22.3739 -13.2704L92.4263 11.8152C94.3317 12.4975 95.3209 14.5947 94.6356 16.4995L89.6818 30.2705C88.9966 32.1753 86.8965 33.1663 84.9911 32.484L14.9387 7.39837C13.0333 6.71605 12.0441 4.6188 12.7293 2.71404L17.6832 -11.057Z" fill="#3E4151"/>
<path id="Rectangle 240651011" d="M50.6327 -3.15252C51.281 -4.9549 53.2682 -5.89262 55.0712 -5.24698L62.1709 -2.70459C63.9739 -2.05895 64.9099 -0.0744402 64.2615 1.72794L50.6327 -3.15252Z" fill="#3E4151"/>
<path id="Rectangle 240651012" d="M72.9803 4.85138C73.6287 3.04901 75.6159 2.11129 77.4189 2.75693L85.0637 5.49453C86.8667 6.14017 87.8027 8.12468 87.1543 9.92706L72.9803 4.85138Z" fill="#3E4151"/>
</g>
<g id="Group 2085664982">
<path id="Rectangle 240651013_2" d="M41.6411 77.3022C41.3118 75.6327 42.3998 74.0133 44.0711 73.6852L87.0993 65.2384C88.7706 64.9103 90.3924 65.9978 90.7216 67.6673L93.1033 79.7443C93.4325 81.4138 92.3445 83.0332 90.6732 83.3613L47.645 91.8081C45.9737 92.1362 44.3519 91.0487 44.0227 89.3792L41.6411 77.3022Z" fill="#3E4151"/>
<path id="Rectangle 240651011_2" d="M50.1268 72.4963C49.8151 70.9159 50.845 69.383 52.4271 69.0724L58.648 67.8512C60.2301 67.5406 61.7652 68.57 62.0769 70.1504L50.1268 72.4963Z" fill="#3E4151"/>
<path id="Rectangle 240651012_2" d="M69.7245 68.6486C69.4128 67.0682 70.4427 65.5353 72.0247 65.2248L78.7237 63.9097C80.3057 63.5991 81.8409 64.6285 82.1526 66.2089L69.7245 68.6486Z" fill="#3E4151"/>
</g>
<g id="Group 2085664981">
<path id="Rectangle 240651014" d="M7.2522 63.6364C6.07522 61.7694 6.6356 59.3054 8.50384 58.1331L56.4819 28.025C58.3502 26.8526 60.8188 27.4157 61.9958 29.2827L70.507 42.784C71.684 44.6511 71.1236 47.115 69.2554 48.2874L21.2773 78.3955C19.4091 79.5679 16.9404 79.0048 15.7635 77.1377L7.2522 63.6364Z" fill="#3E4151"/>
<path id="Rectangle 240651015" d="M14.0735 54.6368C12.9596 52.8699 13.49 50.538 15.258 49.4285L22.2162 45.062C23.9843 43.9525 26.3206 44.4854 27.4344 46.2523L14.0735 54.6368Z" fill="#3E4151"/>
<path id="Rectangle 240651016" d="M35.9856 40.8849C34.8717 39.1179 35.4021 36.7861 37.1702 35.6765L44.6627 30.9747C46.4308 29.8651 48.7671 30.3981 49.881 32.165L35.9856 40.8849Z" fill="#3E4151"/>
</g>
</g>
</svg>
