
<svg width="17" height="16" viewBox="0 0 17 16" fill="none" xmlns="http://www.w3.org/2000/svg">
<path d="M4.90116 6.5906L3.16205 8.3297C2.51254 8.97921 2.13904 9.86297 2.14586 10.7918C2.15269 11.7206 2.51802 12.6097 3.19835 13.269C3.85763 13.9494 4.74697 14.3147 5.67561 14.3215C6.62545 14.3285 7.48829 13.976 8.13783 13.3265L9.87694 11.5874M12.0983 9.40851L13.8374 7.66941C14.4869 7.0199 14.8604 6.13614 14.8536 5.20734C14.8468 4.27854 14.4815 3.3894 13.8011 2.73008C13.142 2.07095 12.2528 1.7056 11.324 1.69877C10.3952 1.69195 9.51135 2.04425 8.86181 2.69378L7.1227 4.43289M5.86249 10.5903L11.0798 5.37297" stroke="#2E3040" stroke-width="1.5" stroke-linecap="round" stroke-linejoin="round"/>
</svg>
