<svg width="64" height="32" viewBox="0 0 64 32" fill="none" xmlns="http://www.w3.org/2000/svg">
<path d="M60.1719 31.9996C57.4105 31.9996 55.1719 29.761 55.1719 26.9996L55.1719 13.1377C55.1719 12.5854 55.6196 12.1377 56.1719 12.1377L62.9995 12.1377C63.5517 12.1377 63.9995 12.5854 63.9995 13.1377L63.9995 30.9996C63.9995 31.5519 63.5517 31.9996 62.9995 31.9996H60.1719Z" fill="white"/>
<path fill-rule="evenodd" clip-rule="evenodd" d="M2.20703 1C2.20703 0.447715 2.65475 0 3.20703 0H7.82772C8.38001 0 8.82772 0.447715 8.82772 1V2.20701H20.9661V1C20.9661 0.447715 21.4139 0 21.9661 0H26.5868C27.1391 0 27.5868 0.447715 27.5868 1V2.20701H28.7931C29.3454 2.20701 29.7931 2.65473 29.7931 3.20701V30.9998C29.7931 31.5521 29.3454 31.9998 28.7931 31.9998H7.99327C3.19731 31.9998 0 28.2651 0 22.6631V3.20701C0 2.65472 0.447715 2.20701 1 2.20701H2.20703V1ZM8.3566 21.3899C8.3566 22.9177 9.22859 23.9362 10.5366 23.9362H20.4365C20.9888 23.9362 21.4365 23.4885 21.4365 22.9362V11.2706C21.4365 10.7183 20.9888 10.2706 20.4365 10.2706H9.3566C8.80432 10.2706 8.3566 10.7183 8.3566 11.2706V21.3899Z" fill="white"/>
<path fill-rule="evenodd" clip-rule="evenodd" d="M57.276 0C56.7238 0 56.276 0.447715 56.276 1V2.20766H35.207C34.6547 2.20766 34.207 2.65538 34.207 3.20766V6.03516C34.207 8.79659 36.4456 11.0352 39.207 11.0352H63.0001C63.5524 11.0352 64.0001 10.5874 64.0001 10.0352V2.20766H62.8967V1C62.8967 0.447715 62.449 0 61.8967 0H57.276Z" fill="white"/>
</svg>
