<svg width="16" height="16" viewBox="0 0 16 16" fill="none" xmlns="http://www.w3.org/2000/svg">
<path d="M9.79545 4.6731C9.79545 5.63979 8.97127 6.49994 8 6.49994C7.02873 6.49994 6.20455 5.63979 6.20455 4.6731C6.20455 3.67054 7.06273 2.75 8 2.75C8.93727 2.75 9.79545 3.67054 9.79545 4.6731ZM13.25 11.1853C13.25 11.6104 13.0227 12.093 12.2215 12.5106C11.3956 12.9411 10.0327 13.2501 8 13.2501C5.96732 13.2501 4.60443 12.9411 3.77848 12.5106C2.97732 12.093 2.75 11.6104 2.75 11.1853C2.75 10.8703 3.05082 10.3548 4.0759 9.87384C5.04141 9.42089 6.42797 9.1204 8 9.1204C9.57203 9.1204 10.9586 9.42089 11.9241 9.87384C12.9492 10.3548 13.25 10.8703 13.25 11.1853Z" fill="white" stroke="#F7F8F9" stroke-width="1.5"/>
</svg>
