
<svg width="100" height="62" viewBox="0 0 100 62" fill="none" xmlns="http://www.w3.org/2000/svg">
<path d="M62 21.6004V9.00039C62 7.01217 60.3882 5.40039 58.4 5.40039H49M49.9996 25.2004L49.9996 30.6004M44.5996 30.6004H55.3996M42.5 5.40039H39.1996C37.2114 5.40039 35.5996 7.01217 35.5996 9.00039V21.6004C35.5996 23.5886 37.2114 25.2004 39.1996 25.2004H58" stroke="#818491" stroke-width="2" stroke-linecap="round" stroke-linejoin="round"/>
<path d="M40 2L60.5 28" stroke="#818491" stroke-width="2" stroke-linecap="round"/>
<path d="M10.1224 44.9121V50.0391H11.9681V51.1328H10.1224V57.1621H8.82359V44.9121H10.1224ZM0.374374 53.8262C1.33824 53.8262 2.45934 53.8262 3.62828 53.792V52.5479C2.24742 52.3428 1.34508 51.5088 1.35875 50.3262C1.34508 48.9453 2.54137 48.0361 4.28453 48.0293C6.02086 48.0361 7.23082 48.9453 7.23766 50.3262C7.23082 51.5088 6.3148 52.3496 4.92711 52.5479V53.7441C6.01402 53.6895 7.10777 53.6006 8.12633 53.457L8.20836 54.4141C5.55602 54.8857 2.69176 54.9131 0.579453 54.9062L0.374374 53.8262ZM0.606796 47.4004V46.3613H3.62828V44.9395H4.92711V46.3613H7.94859V47.4004H0.606796ZM2.57555 50.3262C2.57555 51.1055 3.25914 51.5908 4.28453 51.584C5.30992 51.5908 5.98668 51.1055 5.99352 50.3262C5.98668 49.54 5.30992 49.041 4.28453 49.041C3.25914 49.041 2.57555 49.54 2.57555 50.3262ZM18.4524 45.9512V46.9902H21.1184V44.9258H22.4173V53.8535H21.1184V50.6816H18.4524V51.748H12.7649V45.9512H18.4524ZM14.0501 50.7227H17.1809V47.0039H14.0501V50.7227ZM14.4192 56.9023V53.0332H15.7317V55.8496H22.6907V56.9023H14.4192ZM18.4524 49.6152H21.1184V48.0566H18.4524V49.6152ZM32.4054 52.6094C35.0577 52.6094 36.7325 53.4502 36.7394 54.8789C36.7325 56.3008 35.0577 57.1416 32.4054 57.1348C29.7804 57.1416 28.0987 56.3008 28.0987 54.8789C28.0987 53.4502 29.7804 52.6094 32.4054 52.6094ZM26.8956 51.5977V50.5449H31.3663V48.248H32.6378V50.5449H38.0382V51.5977H26.8956ZM28.1945 46.5527V45.5137H36.6437V46.5391C36.6505 47.5166 36.6505 48.5283 36.3019 49.793L35.0304 49.6562C35.3585 48.4053 35.3585 47.5029 35.3585 46.5527H28.1945ZM29.3976 54.8789C29.3839 55.6719 30.5529 56.1299 32.4054 56.1367C34.2784 56.1299 35.4405 55.6719 35.4542 54.8789C35.4405 54.0723 34.2784 53.6006 32.4054 53.5938C30.5529 53.6006 29.3839 54.0723 29.3976 54.8789ZM49.7588 51.8301V52.8965H46.9151V57.1621H45.6026V52.8965H42.6768V57.1621H41.337V52.8965H38.5479V51.8301H49.7588ZM39.7647 48.084C39.7715 46.4297 41.5352 45.377 44.126 45.377C46.7168 45.377 48.4942 46.4297 48.4873 48.084C48.4942 49.7178 46.7168 50.75 44.126 50.7363C41.5352 50.75 39.7715 49.7178 39.7647 48.084ZM41.1045 48.084C41.0977 49.0889 42.3077 49.7109 44.126 49.7109C45.9512 49.7109 47.1543 49.0889 47.1612 48.084C47.1543 47.0518 45.9512 46.4229 44.126 46.416C42.3077 46.4229 41.0977 47.0518 41.1045 48.084ZM61.4384 50.5312V51.5293H50.2275V50.5312H61.4384ZM51.5537 53.3203V52.3906H60.0576V55.084H52.8662V56.0957H60.4404V57.0117H51.5673V54.2227H58.7724V53.3203H51.5537ZM51.6357 46.1426V45.2266H60.0302V47.8789H52.9482V48.8086H60.2353V49.7246H51.663V47.0176H58.7314V46.1426H51.6357ZM68.5555 45.7051C68.5486 48.1797 67.824 49.8818 65.7664 51.3379L64.9051 50.5176C66.4158 49.5059 67.1336 48.4326 67.3113 46.7578H65.3016V45.7051H68.5555ZM65.4656 56.0547C67.0516 55.5078 67.9129 54.2021 67.9129 53.0195V52.3496H69.1844V53.0195C69.1707 54.0859 69.6834 55.2002 70.7908 55.8906C71.9187 55.1455 72.4588 53.9424 72.452 53.0195V52.3496H73.7234V53.0195C73.7234 54.2979 74.5574 55.5488 76.157 56.0547L75.5008 57.0254C74.2977 56.6016 73.4842 55.7676 73.0672 54.749C72.6844 55.7471 71.9461 56.6699 70.8113 57.1348C69.6424 56.6904 68.9109 55.8223 68.5281 54.8174C68.0906 55.7812 67.284 56.5947 66.1355 57.0254L65.4656 56.0547ZM68.4324 51.0781C69.9363 49.8818 70.5857 48.5625 70.7361 46.7578H69.0066V45.7051H71.9734C71.9734 46.5459 71.9051 47.3184 71.741 48.043H73.7781V44.9258H75.077V51.9395H73.7781V49.123H71.3992C70.9891 50.1211 70.3396 51.0098 69.3484 51.8301L68.4324 51.0781ZM79.9206 45.8281C81.5886 45.835 82.7986 47.2432 82.9968 49.5059H85.5261V44.9121H86.8112V57.1895H85.5261V50.5586H83.0105C82.8669 52.9512 81.6296 54.4346 79.9206 54.4277C78.0954 54.4346 76.8034 52.7666 76.8171 50.1211C76.8034 47.5029 78.0954 45.835 79.9206 45.8281ZM78.0476 50.1211C78.0544 52.0693 78.8132 53.2656 79.9206 53.2656C81.028 53.2656 81.7868 52.0693 81.7937 50.1211C81.7868 48.2002 81.028 46.9971 79.9206 46.9902C78.8132 46.9971 78.0544 48.2002 78.0476 50.1211ZM99.4889 54.5508V55.6309H88.278V54.5508H90.9577V51.3516C89.9528 50.7979 89.3375 49.9229 89.3444 48.8223C89.3375 46.8945 91.2311 45.6299 93.8561 45.623C96.4879 45.6299 98.3815 46.8945 98.3815 48.8223C98.3815 49.9023 97.7936 50.7705 96.8092 51.3242V54.5508H99.4889ZM90.6022 48.8223C90.6022 50.1348 91.9352 50.9893 93.8561 50.9961C95.7633 50.9893 97.1168 50.1348 97.1237 48.8223C97.1168 47.5029 95.7633 46.6621 93.8561 46.6621C91.9352 46.6621 90.6022 47.5029 90.6022 48.8223ZM92.2428 54.5508H95.4967V51.8301C94.9977 51.9463 94.444 52.0078 93.8561 52.0078C93.2819 52.0078 92.735 51.9463 92.2428 51.8301V54.5508Z" fill="#818491"/>
</svg>
